# xmcd
#
# Track frame offsets: 
#        182
#        10515
#        25285
#        36750
#        48910
#        61520
#        73272
#        87702
#        102655
#        118282
#        133252
#        148575
#        164905
#        177302
#        192307
#        207912
#        221710
#        234182
#        247817
#        259505
#
# Disc length: 3599 seconds
#
# Revision: 3
# Processed by: cddbd v1.5.2PL0 Copyright (c) Steve Scherf et al.
# Submitted via: ExactAudioCopyFreeDBPlugin 1.0
#
DISCID=290e0d14
DTITLE=Edwin Starr - The Hits of Edwin Starr
DYEAR=1900
DGENRE=Motown
TTITLE0=Stop Her On Sight (S.O.S.)
TTITLE1=25 Miles
TTITLE2=Headline News
TTITLE3=Agent Double-O Soul
TTITLE4=Back Street
TTITLE5=I Want My Baby Back
TTITLE6=Funky Music Sho Nuff Turns Me On
TTITLE7=Soul Master
TTITLE8=You've Got My Soul On Fire
TTITLE9=Who's Right Or Wrong
TTITLE10=War
TTITLE11=Stop The War Now
TTITLE12=Way Over There
TTITLE13=Take Me Clear From Here
TTITLE14=Cloud Nine
TTITLE15=There You Go
TTITLE16=Gonna Keep On Tryin' Till I Win Your Love
TTITLE17=Time
TTITLE18=My Weakness Is You
TTITLE19=Harlem
EXTD=
EXTT0=
EXTT1=
EXTT2=
EXTT3=
EXTT4=
EXTT5=
EXTT6=
EXTT7=
EXTT8=
EXTT9=
EXTT10=
EXTT11=
EXTT12=
EXTT13=
EXTT14=
EXTT15=
EXTT16=
EXTT17=
EXTT18=
EXTT19=
PLAYORDER=
